<?xml version="1.0" encoding="utf-8" ?>
<svg xmlns="http://www.w3.org/2000/svg" xmlns:xlink="http://www.w3.org/1999/xlink" width="1024" height="1024">
	<path fill="#010101" d="M166.862 240.716C174.045 240.43 181.388 240.847 188.585 240.929L233.881 241.381L412.022 242.917L667.538 244.852C694.575 245.21 721.597 245.067 748.634 245.685C754.664 245.823 760.723 245.658 766.747 245.948C770.254 246.116 774.063 246.672 776.704 249.194C779.648 252.004 781.369 256.151 782.25 260.064C784.338 269.349 783.79 279.892 784.022 289.404L785.087 332.386C785.595 332.324 786.103 332.256 786.614 332.212C812.913 329.973 837.859 337.845 857.992 354.696C862.697 346.835 866.187 339.969 874.093 334.73C882.358 329.253 892.874 327.863 902.489 329.926C910.801 331.709 918.023 336.478 922.575 343.707C928.785 353.568 930.934 368.497 928.215 379.79C926.632 386.361 923.262 392.424 917.255 395.905C908.689 400.869 893.965 400.819 884.663 398.53C890.223 417.603 889.297 438.244 880.759 456.251C873.218 472.155 860.314 486.749 844.728 495.124C839.198 498.096 833.195 500.21 827.3 502.335C840.916 552.272 846.665 612.677 846.496 664.39C846.483 668.292 847.392 680.184 845.434 682.857C842.756 686.513 828.81 688.803 824.072 689.736C825.096 713.156 822.537 757.593 815.578 779.907C818.295 785.517 818.872 790.789 817.431 796.828C820.322 797.786 822.846 798.529 824.952 800.815C825.277 801.904 825.636 802.476 824.89 803.508C819.567 810.862 749.294 815.959 737.377 816.598C697.587 819.687 657.837 819.108 617.987 818.332L539.311 816.815C517.007 816.229 494.687 817.42 472.395 816.681C459.838 816.264 447.355 814.488 434.782 814.183C412.404 813.638 389.999 814.055 367.615 813.751C353.084 813.553 337.578 813.78 323.317 810.681C320.212 810.007 316.365 809.185 314.556 806.349C314.459 804.975 314.445 804.594 315.273 803.393C317 800.891 321.5 799.879 324.322 799.328C341.617 795.956 360.663 796.688 378.216 796.5Q422.54 795.955 466.867 796.307C484.176 796.444 501.883 797.619 519.139 796.504C517.22 794.579 515.652 793.043 515.116 790.276C514.602 787.621 515.291 785.176 516.821 782.977C521.621 776.075 530.316 773.842 538.062 772.387C536.11 765.85 535.146 758.945 533.989 752.229Q531.464 737.639 529.13 723.018C526.068 703.836 522.207 684.131 520.304 664.858C515.804 663.33 511.583 661.548 507.378 659.335C506.651 649.202 506.905 638.854 507.003 628.696L282.195 626.775L221.491 626.099C212.132 626.02 202.497 626.747 193.187 625.985C190.273 625.746 187.689 624.908 185.288 623.212C181.649 620.64 180.47 617.485 179.858 613.18C178.569 604.11 178.02 594.812 177.189 585.685L172.714 535.854Q165.876 464.738 160.338 393.509L152.543 306.177C151.217 291.293 149.036 275.941 148.977 260.997C148.958 255.987 149.596 251.354 152.786 247.269C156.369 242.678 161.361 241.34 166.862 240.716ZM507.219 624.958C508.03 598.002 511.056 571.578 513.244 544.758C500.234 530.629 487.439 515.928 476.356 500.223C469.726 490.828 463.809 480.853 457.781 471.062C458.528 479.193 464.491 534.379 461.657 538.306C460.631 539.728 458.148 539.624 456.548 539.695C445.043 540.212 371.857 541.41 366.47 538.006C361.671 534.975 359.276 502.291 359.095 495.314C358.948 489.683 358.441 473.119 361.313 469.398C368.094 467.208 392.958 468.528 401.811 468.522C419.927 468.51 438.078 468.252 456.19 468.531C450.566 459.204 431.523 419.153 433.92 410.409C434.198 409.393 434.455 409.279 435.153 408.557C436.909 408.106 438.14 408.53 439.65 409.456C445.632 413.122 457.098 426.876 462.548 432.655C484.541 455.383 505.272 474.124 531.474 491.955C531.652 489.718 531.881 487.474 532.001 485.234C517.829 473.442 505.033 460.869 503.288 441.421C502.843 436.463 503.244 431.269 503.689 426.313C499.493 422.879 498.323 420.244 497.33 415.013C498.721 410.625 500.462 406.356 504.743 404.042C506.709 402.979 508.791 402.801 510.986 402.733C514.478 395.179 518.461 387.384 523.602 380.807C519.458 379.499 514.842 378.651 512.574 374.54C511.087 371.843 511.075 368.752 511.952 365.851C515.245 354.957 528.013 342.449 538.014 337.433C554.851 328.989 575.461 325.947 594.053 328.699C593.779 321.226 591.268 299.222 593.988 293.508L594.664 293.189L594.61 293.524L595.227 293.569L595.36 293.021C605.982 291.221 617.347 292.053 628.106 291.963L679.214 291.404L710.912 291.311C716.785 291.329 723.236 290.938 729.01 291.97C731.206 294.331 732.571 343.454 732.58 349.907C746.732 339.179 764.236 334.916 781.539 332.476L780.517 288.794C780.35 280.444 780.814 271.238 779.343 263.004C778.693 259.368 777.495 254.945 774.814 252.265C773.632 251.084 771.945 250.378 770.356 249.947C764.684 248.408 757.185 249.073 751.27 248.956Q733.155 248.524 715.036 248.444L601.53 247.435L295.705 245.015L209.346 244.504C197.739 244.452 186.012 243.943 174.421 244.242C168.416 244.361 161.13 243.675 156.53 248.286C153.049 251.776 151.952 256.684 152.075 261.45C152.486 277.321 155.045 293.564 156.477 309.404L164.171 400.778Q169.928 470.913 176.51 540.976L180.92 587.836C181.621 595.06 181.966 602.422 183.019 609.593C183.512 612.947 184.261 617.587 186.873 619.903C189.102 621.881 191.515 622.611 194.443 622.817C205.738 623.614 217.369 622.983 228.718 623.018L294.265 623.552L402.371 624.416C437.291 624.769 472.297 625.479 507.219 624.958ZM695.447 464.937C683.78 465.014 671.772 464.628 660.151 465.218C658.906 465.323 657.05 465.3 655.947 465.903C652.345 467.871 648.84 472.753 645.831 475.589Q639.741 481.234 632.803 485.797C626.049 490.152 618.829 492.82 611.262 495.356Q615.146 501.487 618.321 508.014Q621.497 514.54 623.924 521.38L657.125 521.176Q679.953 520.905 702.781 521.065C702.254 508.96 702.424 482.259 699.148 471.553C698.408 469.137 696.841 467.018 695.447 464.937ZM672.78 388.444C678.045 387.732 683.546 388.026 688.864 388.008C701.287 387.967 714.018 388.475 726.402 387.84C726.556 386.333 726.826 384.75 726.721 383.242C723.424 378.778 721.715 375.412 720.337 370.03L680.28 369.93C673.465 369.913 665.611 370.58 658.916 369.412C665.281 375.123 668.889 380.932 672.78 388.444ZM699.56 633.39C698.89 631.75 698.267 630.06 697.463 628.482C691.18 627.792 684.769 628.031 678.453 628.036C668.143 628.045 657.823 628.173 647.514 628.06C648.086 634.178 649.579 654.652 647.739 659.611C644.876 662.066 640.904 663.074 637.39 664.306C636.496 691.455 634.662 718.915 632.656 746.011C632.034 754.409 630.833 762.809 630.337 771.199C629.983 777.186 632.259 782.936 631.527 789.02C631.183 791.879 629.676 794.167 628.098 796.5C654.174 797.786 681.112 797.33 707.241 796.868C707.428 794.678 707.658 792.835 708.501 790.793C714.347 782.42 723.022 779.601 732.524 777.247C722.993 749.322 722.928 718.721 720.615 689.632C713.457 688.432 701.009 687.252 695.769 682.16C692.769 675.206 697.985 642.14 699.56 633.39ZM676.678 406.032C676.829 409.526 676.977 413.013 676.992 416.511C680.604 417.433 684.007 418.321 687.297 420.133C690.705 423.281 693.325 426.676 696.047 430.411Q705.908 430.285 715.769 430.334C718.039 421.796 720.906 413.414 725.263 405.695L724.955 405.285C708.906 405.57 692.694 405.207 676.678 406.032ZM674.334 391.118C674.377 395.141 675.522 399.239 676.702 403.071C693.441 402.258 710.333 403.412 727.034 402.375C727.021 398.592 727.075 394.798 726.711 391.029C709.275 391.061 691.759 391.595 674.334 391.118ZM715.305 433.964C709.585 433.787 703.859 433.534 698.135 433.637C703.558 441.009 711.35 453.415 719.329 457.77C716.555 449.53 715.442 442.668 715.305 433.964ZM678.39 460.484Q685.911 460.22 693.434 460.044C686.526 449.94 681.52 438.934 675.279 428.47C671.42 439.976 666.703 450.69 659.412 460.494Q668.901 460.695 678.39 460.484ZM663.496 340.931C657.12 346.423 651.294 352.508 644.964 358.022C647.819 360.012 650.778 361.915 653.56 364.001C659.619 364.624 665.72 364.698 671.805 364.874C677.896 364.803 684.18 365.014 690.241 364.496C681.843 356.167 672.424 348.693 663.496 340.931ZM367.211 474.744L366.252 475.344C363.805 489.18 365.876 519.777 370.406 533.035Q412.956 533.709 455.511 533.495L456.308 532.997C456.391 530.406 455.88 527.856 455.671 525.275Q454.901 515.105 453.901 504.955C452.958 495.06 452.575 484.986 451.394 475.142C432.166 475.579 412.77 475.062 393.532 474.837C384.795 474.735 375.934 474.351 367.211 474.744ZM657.226 297.25C638.108 297.803 618.923 297.805 599.821 298.631C600.026 309.191 600.949 319.705 601.601 330.243C617.671 334.283 631.178 342.87 642.495 354.873C647.147 351.248 659.321 338.758 663.579 337.756C667.028 338.981 669.963 342.194 672.649 344.618C680.281 351.266 687.823 358.169 695.759 364.447C704.154 364.416 712.564 364.482 720.95 364.063C722.529 360.831 724.153 357.973 726.4 355.143C725.291 336.133 725.372 317.027 723.984 298.056C716.018 297.1 707.748 297.476 699.716 297.337C685.595 297.093 671.341 296.65 657.226 297.25Z"/>
	<path fill="#010101" d="M199.997 307.662C222.735 306.828 245.765 307.795 268.523 307.941C276.108 307.99 294.779 306.992 301.268 308.517C303.744 311.87 306.223 367.142 306.625 376.402C303.851 377.919 214.524 377.023 202.531 377.251C201.287 362.612 200.779 347.858 200.061 333.186C199.697 325.754 198.577 317.507 199.066 310.126C199.134 309.102 199.371 308.498 199.997 307.662ZM205.136 374.501Q240.887 374.576 276.636 374.179C285.522 374.078 294.527 374.377 303.393 374.003C303.767 368.157 303.19 362.096 302.833 356.255C301.912 341.224 299.996 326.194 299.32 311.173C279.251 310.619 259.079 310.656 239 310.595C226.66 310.557 214.195 310.164 201.867 310.571C202.041 322.934 202.865 335.28 203.486 347.627C203.933 356.51 204.002 365.694 205.136 374.501Z"/>
	<path fill="#010101" d="M206.081 469.043L308.179 470.089C310.109 492.553 313.86 516.673 312.533 539.129C308.481 539.827 303.885 539.4 299.767 539.396Q286.747 539.46 273.73 539.157L210.157 538.654C208.676 528.257 208.467 517.497 207.787 507.014C206.972 494.466 205.623 481.614 206.081 469.043ZM212.612 535.962L310.079 536.265Q308.664 504.588 305.448 473.042L239.952 472.162C230.18 472.125 218.717 473.175 209.158 472.138C207.757 479.894 209.799 493.999 210.343 502.294C211.078 513.486 211.412 524.815 212.612 535.962Z"/>
	<path fill="#010101" d="M355.183 308.134C367.851 306.846 384.372 307.97 397.336 308.128L430.595 308.792C435.758 308.886 441.03 308.571 446.171 308.972C447.715 309.092 449.02 309.274 450.394 310.015C451.928 315.056 457.295 372.604 456.085 376.474C454.966 377.634 454.705 377.674 453.125 378.072L395.689 378.183C386.003 378.159 365.244 379.614 356.656 376.584C352.367 369.269 351.117 326.912 351.987 317.167C352.3 313.661 352.322 310.519 355.183 308.134ZM361.921 372.033L421.589 372.031C430.96 372.021 440.422 372.381 449.782 371.961C448.662 361.511 448.095 351.025 447.26 340.551C446.591 332.151 445.576 323.653 445.337 315.234L358.568 313.961C357.006 333.172 357.87 353.157 361.921 372.033Z"/>
	<path fill="#010101" d="M211.085 556.601C219.061 555.566 228.012 556.519 236.126 556.595L284.529 556.815C288.04 556.828 307.543 556.259 309.533 556.671C310.917 556.957 311.138 557.876 311.727 558.989C306.945 560.97 225.351 559.423 212.663 559.491C211.306 558.548 211.458 558.159 211.085 556.601Z"/>
	<path fill="#010101" d="M204.489 394.234C214.154 394.132 302.763 393.205 304.896 394.817C305.013 395.996 304.98 396.046 304.376 397.07C291.979 396.853 206.258 398.115 203.572 396.199L203.642 394.83L204.489 394.234Z"/>
	<path fill="#010101" d="M367.458 555.161C387.638 554.526 407.978 554.995 428.172 554.985C431.677 554.984 445.51 554.3 448.014 555.078C448.43 555.207 448.77 555.513 449.147 555.73C449.273 557.014 449.209 556.984 448.462 558.052L393.413 558.118C387.33 558.122 372.476 559.285 367.445 557.679C366.769 556.411 367.066 556.463 367.458 555.161Z"/>
	<path fill="#010101" d="M361.996 394.604C375.127 393.895 388.532 394.392 401.702 394.406C409.775 394.414 418.518 393.73 426.471 394.671C427.464 395.695 427.328 395.755 427.375 397.204C417.441 398.307 406.499 397.439 396.477 397.449C386.219 397.459 375.372 398.265 365.19 397.398C363.753 397.276 363.287 397.323 362.161 396.449L361.996 394.604Z"/>
	<path fill="#010101" d="M213.617 414.255C220.239 414.272 261.649 413.206 264.487 415.34C264.403 415.446 264.332 415.564 264.236 415.658C262.351 417.509 259.129 417.155 256.706 417.117L225.772 417.138C218.491 417.135 210.728 417.675 203.566 416.237L203.38 415.807C206.529 414.106 210.148 414.301 213.617 414.255Z"/>
	<path fill="#010101" d="M214.729 577.745C220.232 577.751 256.216 577.024 258.667 578.218C259.334 578.543 259.314 579.205 259.52 579.859C258.733 580.138 257.958 580.289 257.13 580.388C250.884 581.136 243.913 580.511 237.6 580.512C230.534 580.514 222.864 581.173 215.86 580.292C214.602 580.134 213.885 579.958 212.872 579.141C213.553 578.167 213.706 578.222 214.729 577.745Z"/>
	<path fill="#FEFEFE" d="M498.761 471.798C508.322 479.206 537.326 502.779 547.392 504.022L548.525 503.342C548.635 502.194 548.824 502.544 548.191 501.752C545.58 498.484 538.216 496.059 534.44 493.892C535.019 491.692 535.373 489.557 535.672 487.307C540.274 490.083 544.921 493.061 549.923 495.065C567.678 502.18 588.867 500.321 607.043 496.047C626.953 522.165 639.874 588.773 643.479 621.931Q645.25 639.697 645.165 657.55C640.054 660.831 633.068 662.204 627.202 663.445C597.061 669.817 558.855 669.687 528.805 663.095C522.666 661.749 516.375 660.149 510.679 657.433C509.481 631.548 511.191 605.266 513.451 579.475C514.336 569.373 514.938 558.948 516.687 548.977L519.86 552.277C524.318 557.013 529.289 562.452 534.561 566.249C535.854 566.382 535.777 566.412 536.806 565.62C535.904 561.647 523.449 550.541 520.173 547.185C505.04 531.273 490.581 514.667 477.896 496.717C484.639 488.283 491.604 479.883 498.761 471.798Z"/>
	<path fill="#FEFEFE" d="M760.487 498.06C781.9 505.809 801.589 506.908 823.964 503.149C837.355 549.891 844.748 625.084 842.831 674.035C842.752 676.072 842.858 679.411 841.172 680.814C837.354 683.99 829.871 684.732 825.067 685.625Q819.365 686.655 813.627 687.463Q807.889 688.271 802.124 688.857Q796.359 689.443 790.575 689.805Q784.792 690.168 778.999 690.306Q773.206 690.445 767.412 690.359Q761.618 690.273 755.832 689.964Q750.045 689.654 744.275 689.121Q738.505 688.588 732.76 687.832C721.028 686.204 709.203 684.781 698.235 680.077C698.518 664.437 700.357 649.67 702.976 634.256C708.074 632.55 712.231 629.479 716.184 625.913C727.136 616.034 736.092 603.382 744.89 591.615C752.319 581.679 759.874 571.756 766.846 561.491C768.033 559.745 769.189 558.168 768.784 555.997L767.845 555.794C763.245 558.017 757.689 568.515 754.105 572.851C746.054 565.028 738.987 556.228 731.626 547.765C738.758 532.08 750.459 512.127 760.487 498.06Z"/>
	<path fill="#FEFEFE" d="M577.167 331.226C588.834 330.768 600.589 332.465 611.418 336.923C620.316 340.586 629.065 346.328 635.973 353.032C639.115 356.081 641.902 359.519 645.109 362.493C656.457 373.018 662.768 373.994 669.357 389.844C675.898 405.578 674.59 423.632 668.097 439.158C658.9 461.151 639.724 480.626 617.655 489.599C616.655 488.777 615.724 487.91 614.807 486.998C604.863 477.119 601.582 465.563 601.561 451.791L602.056 451.548C605.861 449.719 608.045 448.075 610.639 444.724C615.073 436.434 616.326 427.928 608.896 420.909C607.292 419.393 604.693 418.321 603.32 416.817C603.109 416.586 602.857 414.999 602.756 414.6L601.824 414.155C596.114 415.259 592.73 422.624 588.011 425.83C586.403 426.922 584.605 427.618 582.637 427.181C579.554 426.495 576.642 423.332 575.111 420.714C571.648 414.793 572.462 408.09 573.924 401.753C574.937 397.362 581.154 390.42 580.818 386.986C580.013 386.374 580.156 386.601 579.233 386.899C568.865 390.235 558.678 394.566 547.718 391.008C544.795 390.059 541.637 388.414 540.233 385.529C539.544 384.112 539.322 382.764 539.838 381.28C544.406 380.351 554.6 378.745 557.847 375.357C558.526 374.649 558.305 374.962 558.281 373.821L557.136 372.901C552.39 372.931 545.932 376.172 540.844 377.042C534.209 378.177 523.569 379.381 517.884 375.036C516.282 373.812 515.071 372.188 514.873 370.134C514.352 364.713 520.266 357.374 523.684 353.522C537.751 337.665 556.535 332.35 577.167 331.226Z"/>
	<path fill="#FEFEFE" d="M788.476 386.678C789.6 388.283 789.185 394.721 789.375 396.94C790.302 407.787 793.915 419.795 801.819 427.652C803.861 429.681 807.51 433.053 810.431 433.049C813.671 431.929 814.855 427.608 816.377 424.812C818.949 420.09 821.883 418.627 826.825 417.25C828.922 417.845 830.795 418.448 832.56 419.767C835.528 421.987 836.984 424.992 837.436 428.632C839.444 444.821 823.152 442.575 816.155 451.836C812.55 456.607 811.56 462.697 812.298 468.53C813.766 480.128 820.673 489.626 829.773 496.573C820.7 500.398 810.521 501.036 800.798 501.442C780.426 501.516 758.767 496.22 742.573 483.434C730.23 473.69 721.094 459.591 719.309 443.777C717.123 424.412 728.282 404.53 739.934 389.795C755.827 393.292 772.818 389.912 788.476 386.678Z"/>
	<path fill="#010101" d="M748.664 411.023C750.419 410.983 752.039 410.94 753.661 411.702C756.352 412.967 758.347 415.016 759.21 417.894Q759.364 418.426 759.464 418.971Q759.563 419.516 759.607 420.068Q759.651 420.621 759.639 421.174Q759.627 421.728 759.559 422.278Q759.492 422.828 759.369 423.368Q759.246 423.908 759.069 424.433Q758.892 424.958 758.664 425.463Q758.435 425.967 758.156 426.446C756.296 429.69 753.669 431.102 750.141 431.959C748.784 431.953 747.384 431.949 746.101 431.444C743.67 430.488 741.569 428.552 740.579 426.124Q740.364 425.606 740.205 425.069Q740.045 424.532 739.943 423.981Q739.84 423.43 739.795 422.872Q739.751 422.313 739.764 421.753Q739.778 421.193 739.85 420.637Q739.922 420.081 740.052 419.536Q740.181 418.991 740.367 418.462Q740.552 417.934 740.792 417.427C742.445 413.859 745.136 412.391 748.664 411.023Z"/>
	<path fill="#FEFEFE" d="M527.706 381.485L535.735 381.416C535.862 382.251 535.999 383.091 536.222 383.907C537.26 387.694 540.161 391.19 543.533 393.135C552.717 398.433 565.03 394.914 574.523 392.413C570.777 398.409 568.953 404.516 569.246 411.595C569.48 417.282 571.363 423.579 575.783 427.43C578.147 429.49 581.109 430.619 584.259 430.381C590.833 429.885 595.415 423.95 599.331 419.298C603.461 420.517 606.528 422.299 608.77 426.113C610.806 429.575 611.209 433.791 610.136 437.636C608.321 444.145 604.34 446.174 598.934 449.373C598.517 450.525 598.248 451.597 598.101 452.818C596.656 464.807 602.504 477.853 609.876 486.944C610.816 488.021 612.155 488.993 612.207 490.439C608.892 493.521 598.575 494.35 594.034 495.054C570.128 498.76 551.618 495.22 532.094 480.851C519.826 471.822 509.33 459.305 507.035 443.785C503.916 422.694 515.447 397.941 527.706 381.485Z"/>
	<path fill="#010101" d="M531.047 404.526C532.035 404.463 533.285 404.299 534.251 404.504C536.044 404.884 537.601 406.238 538.51 407.794C540.058 410.444 540.004 413.899 539.152 416.768C538.139 420.18 536.407 422.058 533.349 423.766C532.582 423.855 531.779 423.956 531.006 423.901C529.412 423.789 527.603 422.833 526.555 421.641C524.968 419.836 524.652 417.272 524.886 414.961C525.35 410.399 527.478 407.249 531.047 404.526Z"/>
	<path fill="#FEFEFE" d="M724.483 690.48C732.411 692.381 741.235 692.941 749.37 693.409C773.509 694.799 796.662 693.494 820.571 690.277C821.598 716.175 819.418 755.237 811.556 779.992C799.36 784.645 791.989 784.62 779.204 783.23C779.837 777.839 781.122 772.401 782.034 767.039Q783.827 756.52 784.635 745.88C786.118 734.779 786.661 723.063 787.016 711.864C787.095 709.365 787.238 706.353 785.456 704.442L784.582 704.644C782.221 707.813 782.709 719.895 782.46 724.408C781.395 743.721 780.028 763.595 775.252 782.399C764.407 788.108 749.639 785.03 738.527 781.762C728.472 764.935 724.618 710.885 724.483 690.48Z"/>
	<path fill="#FEFEFE" d="M709.188 487.407C712.545 491.649 715.447 496.264 718.68 500.608Q728.383 513.606 739.061 525.816Q732.5 537.561 726.552 549.627Q720.604 561.694 715.285 574.05Q709.965 586.407 705.288 599.021Q700.611 611.634 696.589 624.472C680.223 624.868 663.797 624.576 647.424 624.559C645.318 608.574 642.867 592.784 639.934 576.929C647.692 576.906 709.101 576.964 710.379 576.244C711.638 575.535 711.726 574.954 712.072 573.676C711.571 572.471 711.601 572.377 710.479 571.742C708.769 571.599 707.846 572.409 706.489 573.31C705.49 573.974 704.286 573.695 703.099 573.681L639.364 574.045C638.181 570.238 637.336 566.306 636.398 562.432Q671.554 561.681 706.715 562.057C708.683 562.059 710.016 562.017 711.464 560.563C711.197 559.205 710.692 558.901 709.752 557.918C706.158 557.264 701.707 558.766 697.988 558.824L635.88 559.447C633.077 548.679 629.581 538.125 626.086 527.567L679.517 526.912C689.811 526.79 700.741 527.27 710.945 525.972C711.22 520.807 710.647 515.451 710.374 510.281Q709.865 498.84 709.188 487.407Z"/>
	<path fill="#FEFEFE" d="M729.93 550.806C732.718 552.601 740.871 563.936 743.868 567.387C746.465 570.378 749.224 573.068 752.208 575.668C741.524 591.618 728.203 608.578 714.61 622.137C711.942 624.733 708.725 627.659 705.464 629.479C704.11 630.235 703.554 630.361 702.07 629.978C701.55 629.436 701.092 628.952 700.873 628.21C698.392 619.783 724.497 561.645 729.93 550.806Z"/>
	<path fill="#FEFEFE" d="M436.688 411.57C438.468 412.22 439.464 413.208 440.79 414.509C448.441 422.012 455.427 430.205 462.897 437.892Q478.986 454.293 496.221 469.483C492.784 473.709 489.155 477.807 485.622 481.955C482.262 485.847 479.153 489.987 475.968 494.024C462.391 472.626 450.063 451.554 441.289 427.647C439.422 422.558 437.18 416.968 436.688 411.57Z"/>
	<path fill="#FEFEFE" d="M721.747 465.511C724.524 468.244 726.641 472.254 729.143 475.311C736.932 484.831 746.049 490.838 756.869 496.333C751.95 504.159 746.999 511.906 742.437 519.951L741.451 521.501L740.58 521.682C732.73 515.68 715.241 490.764 709.877 481.716C714.242 476.747 717.903 470.903 721.747 465.511Z"/>
	<path fill="#FEFEFE" d="M538.838 776.094C542.96 775.808 547.841 778.728 551.963 779.482C561.956 781.309 572.161 781.332 582.231 780.286Q582.363 782.432 582.455 784.58C582.585 787.721 582.407 791.208 580.037 793.584C576.269 797.361 568.714 796.535 563.747 796.563C552.889 796.603 531.955 797.301 522.133 792.825C520.56 792.108 519.242 791.238 518.71 789.509C518.337 788.295 518.79 787.008 519.438 785.968C523.478 779.482 531.889 777.574 538.838 776.094Z"/>
	<path fill="#FEFEFE" d="M730.756 781.586C733.953 781.308 734.229 783.168 736.651 784.631C738.68 785.856 741.625 786.356 743.935 786.884C754.21 789.233 764.207 789.823 774.464 787.221C774.651 791.256 774.958 795.638 771.984 798.834C768.398 802.686 760.988 802.441 756.125 802.753C745.224 803.347 724.819 800.809 714.575 797.304C713.024 796.774 712.069 796.185 711.326 794.661C711.307 793.701 711.409 793.052 711.909 792.235C715.565 786.265 724.275 782.96 730.756 781.586Z"/>
	<path fill="#FEFEFE" d="M676.847 420.507C679.888 420.979 683.062 421.632 685.57 423.518C691.79 428.194 698.237 439.549 703.366 445.984C708.171 452.01 713.468 457.381 719.002 462.719Q715.606 467.689 712.29 472.713L708.379 479.222C700.821 467.501 693.848 455.195 687.152 442.958C683.575 436.421 680.409 429.587 676.461 423.27L676.148 422.779L676.847 420.507Z"/>
	<path fill="#FEFEFE" d="M625.715 776.091L626.536 776.277C627.926 778.502 628.341 783.578 628.114 786.119C627.88 788.733 626.7 791.115 624.606 792.723C617.33 798.307 596.175 795.854 586.895 794.891L586.144 794.819C585.349 793.531 585.786 792.221 585.949 790.746C586.2 788.47 586.55 786.083 586.565 783.793C586.578 781.899 585.761 780.172 586.198 778.302C589.046 776.636 604.678 778.982 609.386 778.774C614.977 778.526 620.294 777.377 625.715 776.091Z"/>
	<path fill="#FEFEFE" d="M595.985 682.399C596.98 682.482 597.958 682.623 598.946 682.769L599.515 683.561C600.743 697.293 594.515 761.881 589.546 773.559C588.329 773.536 587.295 773.414 586.11 773.138C586.103 772.633 586.083 772.128 586.106 771.624C586.581 761.054 589.2 749.484 590.662 738.906C592.362 726.606 593.071 714.019 593.707 701.621C593.864 698.577 593.886 685.446 594.874 683.474C595.105 683.014 595.615 682.758 595.985 682.399Z"/>
	<path fill="#FEFEFE" d="M812.848 783.518C812.953 783.62 813.073 783.71 813.165 783.824C814.996 786.094 814.796 789.313 814.433 792.053Q814.38 792.486 814.281 792.912Q814.182 793.337 814.038 793.749Q813.895 794.161 813.708 794.556Q813.521 794.951 813.293 795.323Q813.066 795.696 812.799 796.042Q812.533 796.388 812.232 796.704Q811.93 797.019 811.597 797.301Q811.264 797.583 810.902 797.828C803.606 802.836 787.777 800.316 779.607 798.832C778.728 798.58 778.596 798.509 777.954 797.938C777.846 794.268 778.486 790.529 778.462 786.799C791.195 788.246 800.905 788.604 812.848 783.518Z"/>
	<path fill="#FEFEFE" d="M507.569 406.217L508.502 406.624C508.664 407.049 508.791 407.282 508.768 407.786C508.64 410.629 506.035 420.76 503.977 422.37C503.468 421.779 502.953 421.189 502.501 420.552C501.197 418.711 500.884 416.087 501.349 413.911C502.14 410.214 504.482 408.09 507.569 406.217Z"/>
	<path fill="#010101" d="M271.719 686.131C283.682 685.263 296.096 685.918 308.112 685.946C316.366 685.966 324.909 685.369 333.116 685.927C334.3 686.008 335.163 686.117 336.147 686.839C336.026 688.002 335.761 687.899 334.909 688.621C328.434 689.28 274.95 689.782 272.459 688.208C271.884 687.846 271.865 686.755 271.719 686.131Z"/>
	<path fill="#010101" d="M859.854 516.206C870.721 516.314 881.624 516 892.495 515.939C897.312 515.911 902.678 515.468 907.428 516.231C908.954 516.476 909.29 516.726 910.478 517.731L909.6 517.124L909.486 518.693L909.346 518.762L909.112 517.628L909.082 518.847L907.625 519.071C892.573 519.115 877.315 519.8 862.285 519.342C860.431 519.285 858.641 519.338 857.321 517.919C858.089 516.605 858.389 516.712 859.854 516.206Z"/>
	<path fill="#010101" d="M118.832 205.781C122.252 207.306 134.717 223.132 135.851 226.79C136.279 228.168 135.962 228.535 135.412 229.796C135.244 229.755 135.073 229.727 134.908 229.673C131.837 228.665 120.756 212.764 118.967 209.28C118.202 207.791 118.309 207.343 118.832 205.781Z"/>
	<path fill="#010101" d="M95.7606 237.244C99.071 238.17 112.317 247.027 114.608 249.864C115.635 251.137 115.408 251.44 115.157 252.957C110.854 252.467 98.7688 244.439 96.2407 240.837C95.3362 239.548 95.575 238.746 95.7606 237.244Z"/>
	<path fill="#010101" d="M870.874 537.709C875.374 537.616 894.017 536.389 896.471 538.552L896.387 539.896C895.834 539.971 895.283 540.058 894.727 540.104C891.486 540.373 872.549 540.812 870.917 539.504L870.874 537.709Z"/>
	<path fill="#010101" d="M294.437 704.126C298.376 703.847 302.706 703.578 306.643 703.925C307.908 704.036 308.537 704.015 309.405 705.017L308.884 706.074C307.881 706.21 306.878 706.266 305.869 706.33C302.805 706.522 296.441 707.511 294.13 705.476L294.437 704.126Z"/>
</svg>
